<svg id="Camada_1" data-name="Camada 1" xmlns="http://www.w3.org/2000/svg" viewBox="0 0 48 48"><defs><style>.cls-1{fill:#f8faff;}</style></defs><title>insta</title><path class="cls-1" d="M24,0A24,24,0,1,0,48,24,24,24,0,0,0,24,0ZM35.56,29.36c-.18,3.79-2.67,6.09-6.46,6.25-1.75,0-3.47,0-5.19,0H19c-3.84-.16-6.33-2.47-6.51-6.32-.16-3.5-.16-7,0-10.53.18-3.8,2.61-6.14,6.42-6.27,3.4-.12,6.81-.12,10.2,0,3.82.13,6.27,2.45,6.45,6.25C35.73,22.26,35.73,25.82,35.56,29.36Z"/><path class="cls-1" d="M33.35,18.44c-.12-2.37-1.8-3.7-4.19-3.79-1.63-.07-3.31,0-5,0l-.06-.05H18.83c-2.36.08-4,1.38-4.15,3.7q-.29,5.74,0,11.5a3.83,3.83,0,0,0,4,3.68h.16c3.51.08,7,.08,10.54,0a3.83,3.83,0,0,0,4-3.65c.09-1.92.14-3.85.14-5.77S33.44,20.31,33.35,18.44ZM24,30a6,6,0,1,1,6-6A6,6,0,0,1,24,30Zm7.62-12.14a1.32,1.32,0,0,1-1.32,1.32h-.17a1.27,1.27,0,0,1-1.25-1.09s0-.08,0-.12,0-.07,0-.11a1.34,1.34,0,0,1,1.22-1.44h.12a1.43,1.43,0,0,1,1.45,1.41Z"/><path class="cls-1" d="M27.86,24.15v.33a3.87,3.87,0,0,1-7.72-.55V23.6a3.87,3.87,0,0,1,7.72.55Z"/></svg>