<svg id="Camada_1" data-name="Camada 1" xmlns="http://www.w3.org/2000/svg" viewBox="0 0 48 48"><defs><style>.cls-1{fill:#f8faff;}</style></defs><title>linkedin</title><path class="cls-1" d="M24,0A24,24,0,1,0,48,24,24,24,0,0,0,24,0ZM17.49,35.28c0,.15-4.86,0-5.06,0v-15l.06-.23h5Zm.19-18.86a2.48,2.48,0,0,1-1.36,1.32,3.23,3.23,0,0,1-2.55,0,2.42,2.42,0,0,1-1.55-2,2.56,2.56,0,0,1,1.93-3,2.21,2.21,0,0,1,.37-.08l.54,0a3,3,0,0,1,1.61.43,2.54,2.54,0,0,1,1.19,1.79A2.6,2.6,0,0,1,17.68,16.42ZM35.81,35.11h-5a.49.49,0,0,1,0-.17V27.39a7.84,7.84,0,0,0-.06-1.19,3.56,3.56,0,0,0-.51-1.52,2.08,2.08,0,0,0-1.47-.93,3,3,0,0,0-1.45.12A2.74,2.74,0,0,0,26,24.8a2.64,2.64,0,0,0-.52,1.2v9.07l0,.22h-5.1c0-5.08.06-10.15,0-15.21h5.07v2a.36.36,0,0,0,.07-.1,5.5,5.5,0,0,1,1-1.1,4.74,4.74,0,0,1,2.41-1.14,7.12,7.12,0,0,1,1.46-.08,5.6,5.6,0,0,1,2.84.87,5.17,5.17,0,0,1,1.8,2,7.46,7.46,0,0,1,.66,2,12.17,12.17,0,0,1,.16,2Z"/></svg>