<svg id="Camada_1" data-name="Camada 1" xmlns="http://www.w3.org/2000/svg" viewBox="0 0 503.28 740.89"><defs><style>.cls-1{fill:#888;}</style></defs><title>logo</title><g id="Logo_2" data-name="Logo 2"><path id="G" class="cls-1" d="M392.3,509q-60.66,0-109.76-18.76t-84.48-52.83a230.32,230.32,0,0,1-54.15-80.29q-18.78-46.23-18.78-100.45T145,156.88a235.62,235.62,0,0,1,56.68-79.59q36.82-34.05,87-52.83T398.07,5.68a291.82,291.82,0,0,1,79.07,10.43,277.72,277.72,0,0,1,67.51,28.51Q575,62.71,595.92,86.32L521.55,162.1a212.13,212.13,0,0,0-37.19-27.81,193.58,193.58,0,0,0-40.79-17.72A157.48,157.48,0,0,0,397.36,110q-31.8,0-58.14,11.12A144.29,144.29,0,0,0,293,152a138.34,138.34,0,0,0-30.68,46.56q-10.84,26.79-10.83,58A147.37,147.37,0,0,0,263.05,315a143.47,143.47,0,0,0,31.77,46.92,148.62,148.62,0,0,0,48,31.28,154.34,154.34,0,0,0,59.57,11.47,126.58,126.58,0,0,0,42.24-6.95A111.91,111.91,0,0,0,479,379a91.45,91.45,0,0,0,23.1-28.16,73.83,73.83,0,0,0,8.67-35.1V297.65l15.89,23.63H387.24V228.83H624.8A170,170,0,0,1,627,249.68q.72,13.21,1.09,25.72t.36,18.77q0,47.28-17.68,86.55a201.2,201.2,0,0,1-49.47,67.78Q529.49,477,486.17,493T392.3,509Z" transform="translate(-125.13 -5.68)"/><rect class="cls-1" y="622.09" width="503.28" height="118.81"/></g></svg>