<svg id="Camada_1" data-name="Camada 1" xmlns="http://www.w3.org/2000/svg" viewBox="0 0 48 48"><defs><style>.cls-1{fill:#f8faff;}</style></defs><title>whats</title><path class="cls-1" d="M24,0A24,24,0,1,0,48,24,24,24,0,0,0,24,0Zm4.17,35.1a11.74,11.74,0,0,1-1.83.48,12.36,12.36,0,0,1-7.55-1,1.7,1.7,0,0,0-1.09-.07c-2,.56-3.94,1.2-6,1.85.07-.28.11-.47.17-.66.27-.83.49-1.69.84-2.49.84-1.87,1.32-3.71,0-5.56A12.13,12.13,0,1,1,28.17,35.1Z"/><path class="cls-1" d="M34.15,21.61a10.23,10.23,0,0,0-20,4.19,10.43,10.43,0,0,0,1.4,3.42,1.34,1.34,0,0,1,.1,1c-.29,1-.62,2.08-1.08,3.31,1.25-.39,2.29-.68,3.3-1.05a1.38,1.38,0,0,1,1.29.11,10,10,0,0,0,7.1,1.13A10.24,10.24,0,0,0,34.15,21.61Zm-3.9,6.54a1.42,1.42,0,0,1-.49.62,4,4,0,0,1-2.36,1.06,28.25,28.25,0,0,1-2.95-1.1,11.78,11.78,0,0,1-6.21-7.19,3.12,3.12,0,0,1,.63-2.92,1.54,1.54,0,0,1,1.74-.69,1.09,1.09,0,0,1,.67.5c.28.55.38,1.19.68,1.72a1.29,1.29,0,0,1-.33,1.79c-.59.5-.51.95-.12,1.54a9.09,9.09,0,0,0,3.65,3.28.87.87,0,0,0,1.2-.25c.6-.68.87-1,1.24-1a3.52,3.52,0,0,1,1.31.54l.55.29A1.39,1.39,0,0,1,30.25,28.15Z"/></svg>